<svg xmlns="http://www.w3.org/2000/svg" viewBox="0 0 16 16"><path stroke="white" d="M13.1 3.8A4.7 4.7 2.7 004.2 2.9 3.3 3.3 2.6 103.8 9.4H12.7A2.8 2.8 45 0013.1 3.8M8.5.9A3.8 3.8 1.7 0112.3 4.3.5.5 1.7 0012.8 4.7H12.7A1.9 1.9 1.7 0112.7 8.5H3.8A2.4 2.4 2.7 114.4 3.9.5.5 1.7 005 3.6 3.8 3.8 1.7 018.5.9M2.8 12.7A.3.3 88.8 013.1 13V13.6L3.6 13.3A.3.3 88.8 013.8 13.7L3.3 14 3.8 14.3A.3.3 88.8 013.6 14.7L3.1 14.4V15A.3.3 88.8 112.6 15V14.4L2.1 14.7A.3.3 88.8 011.9 14.3L2.4 14 1.9 13.7A.3.3 88.8 012.1 13.3L2.6 13.6V13A.3.3 88.8 012.9 12.7M4.6 10.4A.5.5 1.7 014.8 11.1L4.3 12A.5.5 1.7 113.5 11.6L4 10.7A.5.5 1.7 014.7 10.5ZM6.5 12.7A.3.3 88.8 016.8 13V13.6L7.3 13.3A.3.3 88.8 017.5 13.7L7 14 7.5 14.3A.3.3 88.8 017.3 14.7L6.8 14.4V15A.3.3 88.8 116.3 15V14.4L5.8 14.7A.3.3 88.8 015.6 14.3L6.1 14 5.6 13.7A.3.3 88.8 015.8 13.3L6.3 13.6V13A.3.3 88.8 016.6 12.7M8.3 10.4A.5.5 1.7 018.5 11.1L8 12A.5.5 1.7 117.2 11.6L7.7 10.7A.5.5 1.7 018.4 10.5ZM10.4 12.7A.3.3 88.8 0110.7 13V13.6L11.2 13.3A.3.3 88.8 0111.4 13.7L10.9 14 11.4 14.3A.3.3 88.8 0111.2 14.7L10.7 14.4V15A.3.3 88.8 1110.2 15V14.4L9.7 14.7A.3.3 88.8 019.5 14.3L10 14 9.5 13.7A.3.3 88.8 019.7 13.3L10.2 13.6V13A.3.3 88.8 0110.5 12.7M12.2 10.4A.5.5 1.7 0112.4 11.1L11.9 12A.5.5 1.7 1111.1 11.6L11.6 10.7A.5.5 1.7 0112.3 10.5Z"/></svg>
